#N canvas -8 -8 1366 685 12;
#X obj 499 471 *~;
#X floatatom 575 407 5 0 100 1 Theremin_Amplitude_(0~100dB) - -;
#X floatatom 498 193 5 0 0 0 Theremin_Pitch_in_MIDI_(0~127) - -;
#X obj 575 450 dbtorms;
#X obj 613 188 osc~;
#X floatatom 613 139 5 -2 2 1 Vibrato_Frequency_(0~10Hz) - -;
#X obj 674 124 hsl 100 15 0 10 0 0 empty empty empty -2 -8 0 10 -262144
-1 -1 4800 1;
#X obj 612 232 *~;
#X obj 498 408 osc~;
#X obj 498 253 +~;
#X obj 498 331 mtof~;
#X obj 498 555 dac~;
#X floatatom 681 212 5 0 0 1 Vibrato_Amplitude_in_MIDI_(0~2) - -;
#X obj 784 197 hsl 100 15 0 2 0 1 empty empty -2 -8 0 0 4 -262144 -1
-1 9900 0;
#X obj 628 392 hsl 128 15 0 100 0 0 empty empty empty -2 -8 0 10 -262144
-1 -1 10700 1;
#X obj 331 178 hsl 128 15 0 127 0 0 empty empty empty -2 -8 0 10 -262144
-1 -1 8800 1;
#X text 663 96 Vibrato Oscillator;
#X text 365 148 Right hand;
#X text 658 364 Left Hand;
#X text 529 254 Apply the vibrato to the basic pitch (both in MIDI)
;
#X text 545 330 Convert MIDI into frequency;
#X text 854 228 2 semitones;
#X connect 0 0 11 0;
#X connect 0 0 11 1;
#X connect 1 0 3 0;
#X connect 2 0 9 0;
#X connect 3 0 0 1;
#X connect 4 0 7 0;
#X connect 5 0 4 0;
#X connect 6 0 5 0;
#X connect 7 0 9 1;
#X connect 8 0 0 0;
#X connect 9 0 10 0;
#X connect 10 0 8 0;
#X connect 12 0 7 1;
#X connect 13 0 12 0;
#X connect 14 0 1 0;
#X connect 15 0 2 0;
