#N canvas 465 53 450 495 12;
#N canvas 833 123 669 469 timer 1;
#X obj 259 123 metro 1;
#X obj 180 106 sel 0;
#X msg 180 143 0;
#X obj 259 205 f;
#X obj 313 205 + 1;
#X obj 259 264 / 1000;
#X obj 259 313 snapshot~;
#X msg 354 274 bang;
#X floatatom 180 351 5 0 0 0 - - -;
#X floatatom 181 300 5 0 0 0 - - -;
#X obj 259 52 r stop/start;
#X obj 354 241 inlet bang;
#X obj 259 378 outlet time;
#X connect 0 0 3 0;
#X connect 1 0 2 0;
#X connect 2 0 3 1;
#X connect 2 0 5 0;
#X connect 3 0 4 0;
#X connect 3 0 5 0;
#X connect 4 0 3 1;
#X connect 5 0 6 0;
#X connect 5 0 9 0;
#X connect 6 0 8 0;
#X connect 6 0 12 0;
#X connect 7 0 6 0;
#X connect 10 0 1 0;
#X connect 10 0 0 0;
#X connect 11 0 6 0;
#X restore 82 124 pd timer;
#X obj 82 25 bng 15 250 50 0 empty empty empty 17 7 0 10 -262144 -1
-1;
#X floatatom 82 195 0 0 0 0 - - -;
#X obj 114 270 -;
#X floatatom 114 299 5 0 0 0 - - -;
#X obj 82 232 t f f;
#X obj 239 330 t l;
#X obj 114 330 list prepend;
#X obj 114 369 print stored;
#X obj 132 157 r stop/start;
#X obj 132 195 sel 0;
#X msg 195 232 bang;
#X msg 132 232 0;
#X obj 195 195 sel 0;
#X msg 132 58 1;
#X obj 132 93 s stop/start;
#X msg 311 37 0;
#X obj 311 17 bng 15 250 50 0 empty empty empty 17 7 0 10 -262144 -1
-1;
#X obj 311 65 s stop/start;
#X msg 311 120 \; pd dsp 1;
#X obj 311 97 loadbang;
#X msg 311 162 \; pd dsp 0;
#X connect 0 0 2 0;
#X connect 1 0 14 0;
#X connect 1 0 0 0;
#X connect 2 0 5 0;
#X connect 3 0 4 0;
#X connect 4 0 7 0;
#X connect 5 0 3 1;
#X connect 5 1 3 0;
#X connect 6 0 7 1;
#X connect 7 0 6 0;
#X connect 7 0 8 0;
#X connect 9 0 10 0;
#X connect 9 0 13 0;
#X connect 10 0 12 0;
#X connect 11 0 7 1;
#X connect 12 0 3 1;
#X connect 13 0 11 0;
#X connect 14 0 15 0;
#X connect 16 0 18 0;
#X connect 17 0 16 0;
#X connect 20 0 19 0;
