#N canvas -8 -8 1366 685 12;
#X obj 521 636 dac~;
#X obj 595 583 env~;
#X obj 267 276 vu 15 120 empty empty -1 -8 0 10 -1 -1 0 0;
#X obj 595 610 - 100;
#X obj 121 140 bng 50 250 50 0 empty empty Load 5 -10 0 20 -191407
-1 -1;
#X obj 121 200 s load;
#X obj 177 140 bng 50 250 50 0 empty empty On 15 -10 0 20 -191407 -1
-1;
#X obj 177 200 s start;
#X obj 233 140 bng 50 250 50 0 empty empty Off 10 -10 0 20 -191407
-1 -1;
#X obj 233 200 s stop;
#X obj 595 636 send vu;
#X obj 325 232 r vu;
#X obj 124 259 hsl 78 15 200 2000 0 0 empty empty LowPass -2 -8 0 10
-191407 -1 -1 7700 1;
#X obj 56 197 loadbang;
#X msg 56 225 1500;
#X obj 177 278 s lop;
#X obj 124 301 hsl 78 15 200 2000 0 0 empty empty HighPass -2 -8 0
10 -191407 -1 -1 0 1;
#X obj 56 259 loadbang;
#X obj 177 321 s hip;
#X msg 56 287 500;
#X obj 124 344 hsl 78 15 0 15 0 0 empty empty Tremolo -2 -8 0 10 -191407
-1 -1 4107 1;
#X obj 56 322 loadbang;
#X msg 56 350 8;
#X obj 121 362 s trem;
#X obj 229 276 vsl 15 120 50 150 0 0 empty empty Master 0 -9 0 10 -191407
-1 -1 5950 1;
#X obj 272 455 s master;
#X obj 589 450 dbtorms;
#X msg 589 482 \$1 100;
#X obj 589 512 line~;
#X obj 520 549 *~;
#X obj 589 420 r master;
#X obj 316 165 loadbang;
#N canvas 718 96 450 300 loadsound 0;
#X msg 65 53 open reverb-guitar.wav;
#X obj 65 144 readsf~;
#X msg 85 80 start;
#X msg 91 111 stop;
#X obj 65 25 r load;
#X obj 134 80 r start;
#X obj 135 111 r stop;
#X obj 66 190 outlet~;
#X connect 0 0 1 0;
#X connect 1 0 7 0;
#X connect 2 0 1 0;
#X connect 3 0 1 0;
#X connect 4 0 0 0;
#X connect 5 0 2 0;
#X connect 6 0 3 0;
#X restore 518 97 pd loadsound;
#N canvas 0 50 630 299 lowpass 0;
#X obj 123 110 lop~;
#X obj 123 138 lop~;
#X floatatom 219 78 5 0 0 0 - - -;
#X obj 219 53 r lop;
#X obj 123 39 inlet~;
#X obj 122 198 outlet~;
#X text 190 114 Using two lowpass filters to intensify the effect.
;
#X connect 0 0 1 0;
#X connect 1 0 5 0;
#X connect 2 0 0 1;
#X connect 2 0 1 1;
#X connect 3 0 2 0;
#X connect 4 0 0 0;
#X restore 519 158 pd lowpass;
#N canvas 0 50 646 354 highpass 0;
#X floatatom 215 105 5 0 0 0 - - -;
#X obj 126 141 hip~;
#X obj 126 170 hip~;
#X obj 215 80 r hip;
#X obj 125 64 inlet~;
#X obj 127 235 outlet~;
#X text 190 151 Using two highpass filters to intensify the effect.
;
#X connect 0 0 1 1;
#X connect 0 0 2 1;
#X connect 1 0 2 0;
#X connect 2 0 5 0;
#X connect 3 0 0 0;
#X connect 4 0 1 0;
#X restore 520 230 pd highpass;
#N canvas 0 50 450 300 am 0;
#X floatatom 228 69 5 0 0 0 - - -;
#X obj 228 99 osc~;
#X obj 229 130 +~ 1;
#X obj 228 161 *~ 0.5;
#X obj 160 210 *~;
#X obj 228 40 r trem;
#X obj 161 164 inlet~;
#X obj 161 252 outlet~;
#X connect 0 0 1 0;
#X connect 1 0 2 0;
#X connect 2 0 3 0;
#X connect 3 0 4 1;
#X connect 4 0 7 0;
#X connect 5 0 0 0;
#X connect 6 0 4 0;
#X restore 520 297 pd am;
#X text 624 191 Using filters to substract parts of the spectrum.;
#X text 590 300 Using amplitude modulation to realise a tremolo effect.
;
#X text 638 97 Load an electric guitar etude with reverberation effect.
;
#N canvas 751 172 450 300 fm 0;
#X obj 113 123 *~;
#X obj 113 56 osc~ 1;
#X obj 52 200 +~;
#X obj 51 133 inlet~;
#X obj 52 246 outlet~;
#X obj 113 31 r vibfreq;
#X obj 131 95 r depth;
#X obj 114 178 *~ 0.4;
#X connect 0 0 7 0;
#X connect 1 0 0 0;
#X connect 2 0 4 0;
#X connect 3 0 2 0;
#X connect 5 0 1 0;
#X connect 6 0 0 1;
#X connect 7 0 2 1;
#X restore 519 372 pd fm;
#X obj 124 384 hsl 30 15 0 10 0 0 empty empty Vibrato -2 -8 0 10 -191407
-1 -1 0 1;
#X obj 121 455 s vibfreq;
#X obj 172 384 hsl 30 15 0 1.5 0 0 empty empty Depth -2 -8 0 10 -191407
-1 -1 0 1;
#X obj 204 455 s depth;
#X obj 55 390 loadbang;
#X msg 55 418 0;
#X msg 316 193 100;
#X text 591 374 Using frequency modulation to realise a vibrato effect.
;
#N canvas 424 199 450 300 record 0;
#X msg 118 95 start;
#X msg 121 137 stop;
#X obj 88 174 writesf~ 2;
#X msg 88 61 open new-sound.wav;
#X obj 36 135 inlet~;
#X obj 194 134 inlet~;
#X connect 0 0 2 0;
#X connect 1 0 2 0;
#X connect 3 0 2 0;
#X connect 4 0 2 0;
#X connect 5 0 2 1;
#X restore 420 636 pd record;
#X connect 1 0 3 0;
#X connect 3 0 10 0;
#X connect 4 0 5 0;
#X connect 6 0 7 0;
#X connect 8 0 9 0;
#X connect 11 0 2 0;
#X connect 12 0 15 0;
#X connect 13 0 14 0;
#X connect 14 0 12 0;
#X connect 16 0 18 0;
#X connect 17 0 19 0;
#X connect 19 0 16 0;
#X connect 20 0 23 0;
#X connect 21 0 22 0;
#X connect 22 0 20 0;
#X connect 24 0 25 0;
#X connect 26 0 27 0;
#X connect 27 0 28 0;
#X connect 28 0 29 1;
#X connect 29 0 0 0;
#X connect 29 0 0 1;
#X connect 29 0 1 0;
#X connect 29 0 48 0;
#X connect 29 0 48 1;
#X connect 30 0 26 0;
#X connect 31 0 46 0;
#X connect 32 0 33 0;
#X connect 33 0 34 0;
#X connect 34 0 35 0;
#X connect 35 0 39 0;
#X connect 39 0 29 0;
#X connect 40 0 41 0;
#X connect 42 0 43 0;
#X connect 44 0 45 0;
#X connect 45 0 40 0;
#X connect 45 0 42 0;
#X connect 46 0 24 0;
#X coords 0 -1 1 1 200 330 1 100 100;
